REM DIRINDEX 1\2,1\3,1\4,1\5
REM DIRNAME folder01,folder02,folder03,folder04,folder05
TITLE ""
FILE "1Q_t_1779-1788.mp3" MP3
  TRACK 01 AUDIO
    TITLE "3:cjc004_6244"
    INDEX 01 00:00:00
  TRACK 02 AUDIO
    TITLE "0:"
    INDEX 01 00:00:72
  TRACK 03 AUDIO
    TITLE "4:cjc004_6245"
    INDEX 01 00:01:28
  TRACK 04 AUDIO
    TITLE "0:"
    INDEX 01 00:02:63
  TRACK 05 AUDIO
    TITLE "5:cjc004_6246"
    INDEX 01 00:03:19
  TRACK 06 AUDIO
    TITLE "0:"
    INDEX 01 00:08:46
  TRACK 07 AUDIO
    TITLE "3:cjc004_6247"
    INDEX 01 00:09:22
  TRACK 08 AUDIO
    TITLE "0:"
    INDEX 01 00:10:39
  TRACK 09 AUDIO
    TITLE "4:cjc004_6248"
    INDEX 01 00:10:66
  TRACK 10 AUDIO
    TITLE "0:"
    INDEX 01 00:12:03
  TRACK 11 AUDIO
    TITLE "5:cjc004_6249"
    INDEX 01 00:12:32
  TRACK 12 AUDIO
    TITLE "0:"
    INDEX 01 00:17:61
  TRACK 13 AUDIO
    TITLE "3:cjc004_6250"
    INDEX 01 00:18:35
  TRACK 14 AUDIO
    TITLE "0:"
    INDEX 01 00:19:67
  TRACK 15 AUDIO
    TITLE "4:cjc004_6251"
    INDEX 01 00:20:22
  TRACK 16 AUDIO
    TITLE "0:"
    INDEX 01 00:21:37
  TRACK 17 AUDIO
    TITLE "5:cjc004_6252"
    INDEX 01 00:21:60
  TRACK 18 AUDIO
    TITLE "0:"
    INDEX 01 00:27:00
  TRACK 19 AUDIO
    TITLE "3:cjc004_6253"
    INDEX 01 00:27:59
  TRACK 20 AUDIO
    TITLE "0:"
    INDEX 01 00:29:01
  TRACK 21 AUDIO
    TITLE "4:cjc004_6254"
    INDEX 01 00:29:29
  TRACK 22 AUDIO
    TITLE "0:"
    INDEX 01 00:30:34
  TRACK 23 AUDIO
    TITLE "5:cjc004_6255"
    INDEX 01 00:30:61
  TRACK 24 AUDIO
    TITLE "0:"
    INDEX 01 00:34:67
  TRACK 25 AUDIO
    TITLE "3:cjc004_6256"
    INDEX 01 00:35:43
  TRACK 26 AUDIO
    TITLE "0:"
    INDEX 01 00:36:66
  TRACK 27 AUDIO
    TITLE "4:cjc004_6257"
    INDEX 01 00:37:20
  TRACK 28 AUDIO
    TITLE "0:"
    INDEX 01 00:39:37
  TRACK 29 AUDIO
    TITLE "5:cjc004_6258"
    INDEX 01 00:39:60
  TRACK 30 AUDIO
    TITLE "0:"
    INDEX 01 00:44:42
  TRACK 31 AUDIO
    TITLE "3:cjc004_6259"
    INDEX 01 00:45:20
  TRACK 32 AUDIO
    TITLE "0:"
    INDEX 01 00:46:21
  TRACK 33 AUDIO
    TITLE "4:cjc004_6260"
    INDEX 01 00:46:51
  TRACK 34 AUDIO
    TITLE "0:"
    INDEX 01 00:47:52
  TRACK 35 AUDIO
    TITLE "5:cjc004_6261"
    INDEX 01 00:48:00
  TRACK 36 AUDIO
    TITLE "0:"
    INDEX 01 00:53:13
  TRACK 37 AUDIO
    TITLE "3:cjc004_6262"
    INDEX 01 00:53:64
  TRACK 38 AUDIO
    TITLE "0:"
    INDEX 01 00:54:72
  TRACK 39 AUDIO
    TITLE "4:cjc004_6263"
    INDEX 01 00:55:28
  TRACK 40 AUDIO
    TITLE "0:"
    INDEX 01 00:56:25
  TRACK 41 AUDIO
    TITLE "5:cjc004_6264"
    INDEX 01 00:56:55
  TRACK 42 AUDIO
    TITLE "0:"
    INDEX 01 01:00:66
  TRACK 43 AUDIO
    TITLE "3:cjc004_6265"
    INDEX 01 01:01:46
  TRACK 44 AUDIO
    TITLE "0:"
    INDEX 01 01:02:48
  TRACK 45 AUDIO
    TITLE "4:cjc004_6266"
    INDEX 01 01:03:00
  TRACK 46 AUDIO
    TITLE "0:"
    INDEX 01 01:04:58
  TRACK 47 AUDIO
    TITLE "5:cjc004_6267"
    INDEX 01 01:05:09
  TRACK 48 AUDIO
    TITLE "0:"
    INDEX 01 01:11:00
  TRACK 49 AUDIO
    TITLE "3:cjc004_6268"
    INDEX 01 01:11:51
  TRACK 50 AUDIO
    TITLE "0:"
    INDEX 01 01:12:58
  TRACK 51 AUDIO
    TITLE "4:cjc004_6269"
    INDEX 01 01:13:06
  TRACK 52 AUDIO
    TITLE "0:"
    INDEX 01 01:14:21
  TRACK 53 AUDIO
    TITLE "5:cjc004_6270"
    INDEX 01 01:14:47
  TRACK 54 AUDIO
    TITLE "0:"
    INDEX 01 01:19:46
  TRACK 55 AUDIO
    TITLE "3:cjc004_6271"
    INDEX 01 01:20:26
  TRACK 56 AUDIO
    TITLE "0:"
    INDEX 01 01:21:45
  TRACK 57 AUDIO
    TITLE "4:cjc004_6272"
    INDEX 01 01:21:74
  TRACK 58 AUDIO
    TITLE "0:"
    INDEX 01 01:23:03
  TRACK 59 AUDIO
    TITLE "5:cjc004_6273"
    INDEX 01 01:23:30
  TRACK 60 AUDIO
    TITLE "0:"
    INDEX 01 01:27:24
